<svg xmlns="http://www.w3.org/2000/svg" viewBox="0 0 128 128" fill="none">
  <rect width="128" height="128" rx="24" fill="#4A6CF7"/>
  <g fill="white">
    <!-- Sail -->
    <path d="M72 28c0 0-8 18-8 42h24C88 52 72 28 72 28z"/>
    <!-- Sail smaller -->
    <path d="M62 45c0 0-4 10-4 25h12c0-15-8-25-8-25z" opacity="0.85"/>
    <!-- Wave 1 -->
    <path d="M34 82c6-4 12-4 18 0s12 4 18 0 12-4 18 0 12 4 18 0v12c-6 4-12 4-18 0s-12-4-18 0-12 4-18 0-12-4-18 0v-12z"/>
    <!-- Wave 2 -->
    <path d="M34 92c6-3 12-3 18 0s12 3 18 0 12-3 18 0 12 3 18 0v8c-6 3-12 3-18 0s-12-3-18 0-12 3-18 0-12-3-18 0v-8z" opacity="0.7"/>
  </g>
</svg>
